<svg height="512pt" viewBox="0 0 512 512" width="512pt" xmlns="http://www.w3.org/2000/svg" xmlns:xlink="http://www.w3.org/1999/xlink"><linearGradient id="a" gradientUnits="userSpaceOnUse" x1="0" x2="512" y1="256" y2="256"><stop offset="0" stop-color="#00f2fe"/><stop offset=".0208" stop-color="#03effe"/><stop offset=".2931" stop-color="#24d2fe"/><stop offset=".5538" stop-color="#3cbdfe"/><stop offset=".7956" stop-color="#4ab0fe"/><stop offset="1" stop-color="#4facfe"/></linearGradient><path d="m61 120c33.085938 0 60-26.914062 60-60s-26.914062-60-60-60-60 26.914062-60 60 26.914062 60 60 60zm0-80c11.027344 0 20 8.972656 20 20s-8.972656 20-20 20-20-8.972656-20-20 8.972656-20 20-20zm431 198.667969c11.046875 0 20-8.953125 20-20v-18.667969c0-33.085938-26.914062-60-60-60h-8.9375c-7.410156 0-14.214844 4.097656-17.679688 10.648438l-50.429687 95.351562h-38.953125v-47c0-33.085938-26.914062-60-60-60h-40c-33.085938 0-60 26.914062-60 60v47h-38.953125l-50.429687-95.351562c-3.464844-6.550782-10.269532-10.648438-17.679688-10.648438h-8.9375c-33.085938 0-60 26.914062-60 60v118c0 25.511719 16.011719 47.34375 38.511719 56.007812 3.050781 1.882813 6.636719 2.992188 10.488281 2.992188.074219 0 .144531.011719.222656.011719 1.644532.300781 3.3125.542969 5.003906.703125 8.496094 2.308594 14.773438 10.066406 14.773438 19.285156v95c0 11.046875 8.953125 20 20 20s20-8.953125 20-20v-95c0-6.640625-1.101562-13.023438-3.101562-19h43.101562v74c0 33.085938 26.914062 60 60 60h95c33.085938 0 60-26.914062 60-60v-74h42.101562c-2 5.976562-3.101562 12.359375-3.101562 19v95c0 11.046875 8.953125 20 20 20s20-8.953125 20-20v-95c0-9.21875 6.277344-16.976562 14.773438-19.28125 1.691406-.164062 3.359374-.40625 5.003906-.707031.078125 0 .148437-.011719.222656-.011719 3.851562 0 7.4375-1.109375 10.488281-2.992188 22.496094-8.664062 38.511719-30.496093 38.511719-56.007812 0-11.046875-8.953125-20-20-20s-20 8.953125-20 20c0 9.21875-6.277344 16.976562-14.773438 19.28125-1.691406.164062-3.359374.40625-5.003906.707031-.078125 0-.148437.011719-.222656.011719h-88v-52h23c7.410156 0 14.214844-4.097656 17.679688-10.648438l50.3125-95.128906c9.613281 1.449219 17.007812 9.765625 17.007812 19.777344v18.667969c0 11.046875 8.953125 20 20 20zm-276-39.667969c0-11.027344 8.972656-20 20-20h40c11.027344 0 20 8.972656 20 20v47h-80zm-156 139c-.074219 0-.144531-.011719-.222656-.011719-1.644532-.300781-3.3125-.542969-5.003906-.703125-8.496094-2.308594-14.773438-10.066406-14.773438-19.285156v-118c0-10.011719 7.394531-18.328125 17.007812-19.777344l50.3125 95.128906c3.464844 6.550782 10.269532 10.648438 17.679688 10.648438h24v52zm264 114c0 11.027344-8.972656 20-20 20h-95c-11.027344 0-20-8.972656-20-20v-166h135zm127-332c33.085938 0 60-26.914062 60-60s-26.914062-60-60-60-60 26.914062-60 60 26.914062 60 60 60zm0-80c11.027344 0 20 8.972656 20 20s-8.972656 20-20 20-20-8.972656-20-20 8.972656-20 20-20zm-195 80c33.085938 0 60-26.914062 60-60s-26.914062-60-60-60-60 26.914062-60 60 26.914062 60 60 60zm0-80c11.027344 0 20 8.972656 20 20s-8.972656 20-20 20-20-8.972656-20-20 8.972656-20 20-20zm0 0" fill="url(#a)"/></svg>